<?xml version="1.0" encoding="UTF-8"?>
<svg id="contents" xmlns="http://www.w3.org/2000/svg" viewBox="0 0 512.02 465">
  <defs>
    <style>
      .cls-1 {
        fill: #fff;
      }
    </style>
  </defs>
  <g>
    <path class="cls-1" d="m61.51,108.63c13.44,0,26.16,3.06,37.5,8.53V5c0-2.71-2.29-5-5-5H29.01c-2.71,0-5,2.29-5,5v112.16c11.34-5.47,24.06-8.53,37.5-8.53Z"/>
    <path class="cls-1" d="m61.51,281.65c-13.44,0-26.16-3.06-37.5-8.53v186.88c0,2.71,2.29,5,5,5h65c2.71,0,5-2.29,5-5v-186.88c-11.34,5.47-24.06,8.53-37.5,8.53Z"/>
  </g>
  <circle class="cls-1" cx="61.51" cy="195.14" r="61.51"/>
  <g>
    <path class="cls-1" d="m256.01,218.72c13.44,0,26.16,3.06,37.5,8.53V5c0-2.71-2.29-5-5-5h-65c-2.71,0-5,2.29-5,5v222.25c11.34-5.47,24.06-8.53,37.5-8.53Z"/>
    <path class="cls-1" d="m256.01,391.74c-13.44,0-26.16-3.06-37.5-8.53v76.79c0,2.71,2.29,5,5,5h65c2.71,0,5-2.29,5-5v-76.79c-11.34,5.47-24.06,8.53-37.5,8.53Z"/>
  </g>
  <path class="cls-1" d="m256.01,366.74c-33.92,0-61.51-27.59-61.51-61.51s27.59-61.51,61.51-61.51,61.51,27.59,61.51,61.51-27.59,61.51-61.51,61.51Z"/>
  <g>
    <path class="cls-1" d="m450.51,211.01c-13.44,0-26.16-3.06-37.5-8.53v257.52c0,2.71,2.29,5,5,5h65c2.71,0,5-2.29,5-5V202.48c-11.34,5.47-24.06,8.53-37.5,8.53Z"/>
    <path class="cls-1" d="m450.51,37.99c13.44,0,26.16,3.06,37.5,8.53V5c0-2.71-2.29-5-5-5h-65c-2.71,0-5,2.29-5,5v41.52c11.34-5.47,24.06-8.53,37.5-8.53Z"/>
  </g>
  <circle class="cls-1" cx="450.51" cy="124.5" r="61.51" transform="translate(324.33 574.54) rotate(-89.79)"/>
</svg>